<svg t="1685778175398" class="icon" viewBox="0 0 1024 1024" version="1.1" xmlns="http://www.w3.org/2000/svg" p-id="7859" width="1024" height="1024" fill="#fefffe">
    <path stroke="null" d="m512.03004,910.47844c-11.57417,0 -23.14835,-4.05577 -32.00982,-12.08454l-452.11604,-413.85383c-12.93053,-11.91899 -16.81872,-29.63194 -9.76571,-45.11006c6.96258,-15.47814 23.51003,-25.57617 41.77552,-25.57617l226.05801,0l0,-372.46845c0,-22.84473 20.25481,-41.38539 45.21161,-41.38539l361.69282,0c24.95681,0 45.21161,18.54066 45.21161,41.38539l0,372.46845l226.05801,0c18.26549,0 34.81294,10.09803 41.77552,25.57617s3.07439,33.27385 -9.76571,45.11006l-452.11604,413.85383c-8.86147,8.02877 -20.43565,12.08454 -32.00982,12.08454zm-342.97523,-413.85384l342.97523,313.94952l342.97523,-313.94952l-162.12882,0c-24.95681,0 -45.2116,-18.54065 -45.2116,-41.38538l0,-372.46845l-271.26962,0l0,372.46845c0,22.84473 -20.25479,41.38538 -45.2116,41.38538l-162.12882,0z" p-id="7860" id="svg_1"/>
    <path id="svg_2" d="m989.86667,1023.99998l-955.73334,0c-18.8416,0 -34.13333,-15.29174 -34.13333,-34.13334s15.29173,-34.13333 34.13333,-34.13333l955.73334,0c18.8416,0 34.13333,15.29173 34.13333,34.13333s-15.29173,34.13334 -34.13333,34.13334z"/>
</svg>